{
	"asset":{
		"generator":"Khronos glTF Blender I/O v4.1.62",
		"version":"2.0"
	},
	"scene":0,
	"scenes":[
		{
			"name":"Scene",
			"nodes":[
				44
			]
		}
	],
	"nodes":[
		{
			"name":"leg_front_left_toe_end",
			"rotation":[
				-1.4901161193847656e-08,
				-2.173089441726006e-08,
				-1.2417618933113772e-08,
				1
			],
			"translation":[
				-4.157504918111954e-07,
				3.000002861022949,
				1.1104029908892699e-06
			]
		},
		{
			"children":[
				0
			],
			"name":"leg_front_left_toe",
			"rotation":[
				-0.49947693943977356,
				0.10628104954957962,
				0.10628095269203186,
				0.8531889915466309
			],
			"scale":[
				1,
				1.0000001192092896,
				0.9999998807907104
			],
			"translation":[
				-5.21540641784668e-07,
				7.315244197845459,
				-1.0728836059570312e-06
			]
		},
		{
			"children":[
				1
			],
			"name":"leg_front_left_ankle",
			"rotation":[
				-0.10365038365125656,
				0.026580126956105232,
				0.023238448426127434,
				0.993986964225769
			],
			"scale":[
				1,
				1,
				0.9999999403953552
			],
			"translation":[
				5.364418029785156e-07,
				12.325285911560059,
				-8.344650268554688e-07
			]
		},
		{
			"children":[
				2
			],
			"name":"leg_front_left_bot0",
			"rotation":[
				0.034574560821056366,
				0.9720441699028015,
				0.13946294784545898,
				0.18570107221603394
			],
			"scale":[
				0.9999998807907104,
				0.9999999403953552,
				1
			],
			"translation":[
				-4.351022653281689e-08,
				7.037785053253174,
				-1.2455402611522004e-06
			]
		},
		{
			"children":[
				3
			],
			"name":"leg_front_left_top1",
			"rotation":[
				0.018545152619481087,
				0.5214486122131348,
				-0.18309222161769867,
				0.8332014679908752
			],
			"scale":[
				1,
				0.9999999403953552,
				1
			],
			"translation":[
				-1.043081283569336e-06,
				8.113380432128906,
				-1.087784767150879e-06
			]
		},
		{
			"children":[
				4
			],
			"name":"leg_front_left_top0",
			"rotation":[
				0.5157210230827332,
				0.5934532880783081,
				0.5747666954994202,
				0.22691044211387634
			],
			"scale":[
				1,
				1.0000001192092896,
				1
			],
			"translation":[
				-7.394085344003543e-14,
				6.2532057762146,
				2.682209014892578e-06
			]
		},
		{
			"name":"leg_front_right_toe_end",
			"rotation":[
				-1.4901161193847656e-08,
				2.173089441726006e-08,
				1.2417618933113772e-08,
				1
			],
			"translation":[
				4.157504918111954e-07,
				3.000002861022949,
				1.1104029908892699e-06
			]
		},
		{
			"children":[
				6
			],
			"name":"leg_front_right_toe",
			"rotation":[
				-0.49947693943977356,
				-0.10628104954957962,
				-0.10628095269203186,
				0.8531889915466309
			],
			"scale":[
				1,
				1.0000001192092896,
				0.9999998807907104
			],
			"translation":[
				5.21540641784668e-07,
				7.315244197845459,
				-1.0728836059570312e-06
			]
		},
		{
			"children":[
				7
			],
			"name":"leg_front_right_ankle",
			"rotation":[
				-0.10365038365125656,
				-0.026580126956105232,
				-0.023238448426127434,
				0.993986964225769
			],
			"scale":[
				1,
				1,
				0.9999999403953552
			],
			"translation":[
				-5.364418029785156e-07,
				12.325285911560059,
				-8.344650268554688e-07
			]
		},
		{
			"children":[
				8
			],
			"name":"leg_front_right_bot0",
			"rotation":[
				0.034574560821056366,
				-0.9720441699028015,
				-0.13946294784545898,
				0.18570107221603394
			],
			"scale":[
				0.9999998807907104,
				0.9999999403953552,
				1
			],
			"translation":[
				4.351022653281689e-08,
				7.037785053253174,
				-1.2455402611522004e-06
			]
		},
		{
			"children":[
				9
			],
			"name":"leg_front_right_top1",
			"rotation":[
				0.018545152619481087,
				-0.5214486122131348,
				0.18309222161769867,
				0.8332014679908752
			],
			"scale":[
				1,
				0.9999999403953552,
				1
			],
			"translation":[
				1.043081283569336e-06,
				8.113380432128906,
				-1.087784767150879e-06
			]
		},
		{
			"children":[
				10
			],
			"name":"leg_front_right_top0",
			"rotation":[
				0.5157210230827332,
				-0.5934532880783081,
				-0.5747666954994202,
				0.22691044211387634
			],
			"scale":[
				1,
				1.0000001192092896,
				1
			],
			"translation":[
				-7.394085344003543e-14,
				6.2532057762146,
				2.682209014892578e-06
			]
		},
		{
			"name":"head0_end",
			"rotation":[
				-2.98027771350462e-08,
				-4.0745362639427185e-10,
				-6.402842700481415e-10,
				1
			],
			"scale":[
				1,
				0.9999999403953552,
				1
			],
			"translation":[
				-1.3969838619232178e-09,
				13.884234428405762,
				-2.8914655558764935e-08
			]
		},
		{
			"children":[
				12
			],
			"name":"head0",
			"rotation":[
				0.5114926099777222,
				-0.0012835853267461061,
				-0.002622698899358511,
				0.8592827320098877
			],
			"translation":[
				4.7734694419432344e-08,
				4.115594863891602,
				-6.944134156583459e-11
			]
		},
		{
			"children":[
				13
			],
			"name":"neck1",
			"rotation":[
				-0.05336247384548187,
				-0.0014461689861491323,
				-0.002954898402094841,
				0.9985697865486145
			],
			"scale":[
				0.9999999403953552,
				1.0000001192092896,
				1
			],
			"translation":[
				-7.450580596923828e-09,
				8.700194358825684,
				-1.1530937626957893e-06
			]
		},
		{
			"children":[
				14
			],
			"name":"neck0",
			"rotation":[
				-0.28869181871414185,
				0.002363154198974371,
				0.002288740361109376,
				0.9574164152145386
			],
			"translation":[
				-7.394085344003543e-14,
				6.2532057762146,
				2.682209014892578e-06
			]
		},
		{
			"children":[
				5,
				11,
				15
			],
			"name":"body_top1",
			"rotation":[
				-0.010751389898359776,
				7.54935314262184e-08,
				8.117064798085494e-10,
				0.9999422430992126
			],
			"scale":[
				1,
				1,
				0.9999999403953552
			],
			"translation":[
				-2.375877272697835e-13,
				6.359099388122559,
				-1.9073486328125e-06
			]
		},
		{
			"children":[
				16
			],
			"name":"body_top0",
			"rotation":[
				5.193830787675324e-08,
				0.7257639765739441,
				0.6879438161849976,
				5.479365938754199e-08
			],
			"scale":[
				1,
				0.9999995231628418,
				0.9999998807907104
			],
			"translation":[
				-0.04999999329447746,
				0.16000011563301086,
				5.349999904632568
			]
		},
		{
			"name":"leg_hind_left_toe_end",
			"rotation":[
				4.656622865084614e-10,
				2.051817560300151e-08,
				7.45057615603173e-09,
				1
			],
			"translation":[
				4.704254763510107e-08,
				2.9999992847442627,
				2.147226496163057e-06
			]
		},
		{
			"children":[
				18
			],
			"name":"leg_hind_left_toe",
			"rotation":[
				0.06580705940723419,
				0.7055730223655701,
				0.7055730819702148,
				0.0016674741636961699
			],
			"scale":[
				1,
				0.9999997615814209,
				1
			],
			"translation":[
				1.1920928955078125e-07,
				11.552597999572754,
				1.6987323760986328e-06
			]
		},
		{
			"children":[
				19
			],
			"name":"leg_hind_left_ankle",
			"rotation":[
				0.021506112068891525,
				0.8747669458389282,
				-0.44709140062332153,
				0.18555216491222382
			],
			"scale":[
				1,
				0.9999996423721313,
				1.0000001192092896
			],
			"translation":[
				-5.960464477539062e-07,
				12.419843673706055,
				9.238719940185547e-07
			]
		},
		{
			"children":[
				20
			],
			"name":"leg_hind_left_bot0",
			"rotation":[
				-0.03275677561759949,
				-0.8817029595375061,
				0.44907745718955994,
				0.1409125179052353
			],
			"scale":[
				1,
				1.0000003576278687,
				0.9999999403953552
			],
			"translation":[
				1.2667078408412635e-07,
				6.738577365875244,
				-1.0883695722441189e-07
			]
		},
		{
			"children":[
				21
			],
			"name":"leg_hind_left_top1",
			"rotation":[
				-0.021367166191339493,
				-0.5751481056213379,
				-0.18294242024421692,
				0.7970446348190308
			],
			"scale":[
				0.9999999403953552,
				0.9999998807907104,
				0.9999998807907104
			],
			"translation":[
				-5.960464477539062e-07,
				8.793460845947266,
				-4.172325134277344e-07
			]
		},
		{
			"children":[
				22
			],
			"name":"leg_hind_left_top0",
			"rotation":[
				2.830399914444115e-08,
				0.5755459666252136,
				0.21240687370300293,
				0.7897025942802429
			],
			"translation":[
				-0.09999999403953552,
				-0.019998295232653618,
				-7.400001049041748
			]
		},
		{
			"name":"leg_hind_right_toe_end",
			"rotation":[
				-2.328094383940993e-10,
				2.2953466327635397e-07,
				2.3841863594498136e-07,
				1
			],
			"translation":[
				-6.473646863014437e-08,
				3.0000011920928955,
				7.710452791798161e-07
			]
		},
		{
			"children":[
				24
			],
			"name":"leg_hind_right_toe",
			"rotation":[
				0.06580790132284164,
				-0.7055729627609253,
				-0.7055730819702148,
				0.0016665449365973473
			],
			"scale":[
				1,
				1,
				0.9999999403953552
			],
			"translation":[
				-4.76837158203125e-07,
				11.552590370178223,
				-1.2740492820739746e-06
			]
		},
		{
			"children":[
				25
			],
			"name":"leg_hind_right_ankle",
			"rotation":[
				0.02150578983128071,
				-0.8747668266296387,
				0.44709116220474243,
				0.18555310368537903
			],
			"scale":[
				1,
				0.9999997615814209,
				1.0000001192092896
			],
			"translation":[
				-1.0728836059570312e-06,
				12.419838905334473,
				-1.043081283569336e-07
			]
		},
		{
			"children":[
				26
			],
			"name":"leg_hind_right_bot0",
			"rotation":[
				-0.03275545686483383,
				0.881702721118927,
				-0.4490772485733032,
				0.14091505110263824
			],
			"scale":[
				0.9999999403953552,
				1.0000001192092896,
				1
			],
			"translation":[
				6.620757631026208e-08,
				6.7385759353637695,
				8.843032617278368e-08
			]
		},
		{
			"children":[
				27
			],
			"name":"leg_hind_right_top1",
			"rotation":[
				-0.020883092656731606,
				0.5621059536933899,
				0.18672429025173187,
				0.8054408431053162
			],
			"scale":[
				0.9999999403953552,
				1.0000001192092896,
				1.0000001192092896
			],
			"translation":[
				7.152557373046875e-07,
				8.827516555786133,
				2.980232238769531e-07
			]
		},
		{
			"children":[
				28
			],
			"name":"leg_hind_right_top0",
			"rotation":[
				0,
				-0.5624924898147583,
				-0.2164977788925171,
				0.797954261302948
			],
			"scale":[
				0.9999998807907104,
				0.9999999403953552,
				0.9999998807907104
			],
			"translation":[
				-0.09999999403953552,
				-0.019998295232653618,
				-7.400001049041748
			]
		},
		{
			"name":"tail8_end",
			"rotation":[
				-1.4149554772302508e-07,
				-2.444721758365631e-09,
				2.6775524020195007e-09,
				1
			],
			"translation":[
				-7.450580596923828e-09,
				3.41796875,
				2.4614855647087097e-06
			]
		},
		{
			"children":[
				30
			],
			"name":"tail8",
			"rotation":[
				0.04650488495826721,
				-0.0211231280118227,
				0.013914129696786404,
				0.9985978007316589
			],
			"scale":[
				1,
				1,
				1.0000001192092896
			],
			"translation":[
				1.2665987014770508e-07,
				3.779562473297119,
				1.2724194675683975e-07
			]
		},
		{
			"children":[
				31
			],
			"name":"tail7",
			"rotation":[
				0.00167642452288419,
				0.018220050260424614,
				-0.011387263424694538,
				0.9997677803039551
			],
			"scale":[
				0.9999999403953552,
				1.0000001192092896,
				1
			],
			"translation":[
				-4.6193599700927734e-07,
				5.2328314781188965,
				-1.1106021702289581e-07
			]
		},
		{
			"children":[
				32
			],
			"name":"tail6",
			"rotation":[
				0.2818159759044647,
				0.019473692402243614,
				-0.015149754472076893,
				0.9591512680053711
			],
			"scale":[
				0.9999999403953552,
				0.9999999403953552,
				0.9999999403953552
			],
			"translation":[
				6.183981895446777e-07,
				2.8044660091400146,
				-1.8738210201263428e-06
			]
		},
		{
			"children":[
				33
			],
			"name":"tail5",
			"rotation":[
				-0.08215070515871048,
				-0.031134484335780144,
				0.011517387814819813,
				0.9960669279098511
			],
			"scale":[
				0.9999999403953552,
				1,
				1
			],
			"translation":[
				1.392931778809725e-07,
				4.1487908363342285,
				4.76837158203125e-07
			]
		},
		{
			"children":[
				34
			],
			"name":"tail4",
			"rotation":[
				-0.046921562403440475,
				0.014388162642717361,
				-0.005322510842233896,
				0.9987807869911194
			],
			"scale":[
				1,
				0.9999999403953552,
				0.9999999403953552
			],
			"translation":[
				-2.3087685008249537e-07,
				4.172832489013672,
				6.4427727011207025e-06
			]
		},
		{
			"children":[
				35
			],
			"name":"tail3",
			"rotation":[
				0.2055353820323944,
				0.01608196087181568,
				-0.010248775593936443,
				0.978463888168335
			],
			"scale":[
				0.9999998807907104,
				1,
				0.9999998807907104
			],
			"translation":[
				2.1979212760925293e-07,
				3.835036039352417,
				-3.329012542963028e-06
			]
		},
		{
			"children":[
				36
			],
			"name":"tail2",
			"rotation":[
				-0.03344035893678665,
				-0.11680810898542404,
				0.024114836007356644,
				0.9922983646392822
			],
			"translation":[
				-9.350478649139404e-07,
				3.893906354904175,
				1.2349337339401245e-06
			]
		},
		{
			"children":[
				37
			],
			"name":"tail1",
			"rotation":[
				-0.10155622661113739,
				0.04272985830903053,
				-0.018861740827560425,
				0.993732750415802
			],
			"scale":[
				1,
				0.9999999403953552,
				1
			],
			"translation":[
				0,
				1.9608663320541382,
				-4.842877388000488e-08
			]
		},
		{
			"children":[
				38
			],
			"name":"tail0",
			"rotation":[
				-0.3577979803085327,
				0.03274446725845337,
				-0.026119623333215714,
				0.9328591823577881
			],
			"scale":[
				0.9999999403953552,
				0.9999999403953552,
				1
			],
			"translation":[
				-4.6566128730773926e-09,
				14.632923126220703,
				-1.6530975699424744e-06
			]
		},
		{
			"children":[
				39
			],
			"name":"pelvis",
			"rotation":[
				2.8066322599329396e-08,
				0.7673550248146057,
				-0.6412169337272644,
				0.0026643939781934023
			],
			"scale":[
				0.9999999403953552,
				0.9999999403953552,
				1
			],
			"translation":[
				-3.725290298461914e-09,
				0.10000119358301163,
				-3.577468987714383e-08
			]
		},
		{
			"children":[
				23,
				29,
				40
			],
			"name":"body_bot",
			"translation":[
				3.725290298461914e-09,
				0.09999928623437881,
				-2.822480382747017e-08
			]
		},
		{
			"children":[
				17,
				41
			],
			"name":"body",
			"rotation":[
				0,
				0.7071067690849304,
				0.7071067690849304,
				0
			],
			"translation":[
				-0.04999999701976776,
				-1.850000023841858,
				-9.199999809265137
			]
		},
		{
			"mesh":0,
			"name":"lbo",
			"skin":0
		},
		{
			"children":[
				43,
				42
			],
			"name":"rig",
			"rotation":[
				0.7071068286895752,
				0,
				0,
				0.7071068286895752
			]
		}
	],
	"materials":[
		{
			"doubleSided":true,
			"name":"Material.001",
			"pbrMetallicRoughness":{
				"baseColorFactor":[
					0.800000011920929,
					0.800000011920929,
					0.800000011920929,
					1
				],
				"metallicFactor":0,
				"roughnessFactor":0.5
			}
		},
		{
			"doubleSided":true,
			"name":"Eye_Render",
			"pbrMetallicRoughness":{
				"baseColorFactor":[
					0.800000011920929,
					0.800000011920929,
					0.800000011920929,
					1
				],
				"metallicFactor":0,
				"roughnessFactor":0.5
			}
		}
	],
	"meshes":[
		{
			"name":"lbo",
			"primitives":[
				{
					"attributes":{
						"POSITION":0,
						"NORMAL":1,
						"TEXCOORD_0":2,
						"JOINTS_0":3,
						"WEIGHTS_0":4
					},
					"indices":5,
					"material":0
				},
				{
					"attributes":{
						"POSITION":6,
						"NORMAL":7,
						"TEXCOORD_0":8,
						"JOINTS_0":9,
						"WEIGHTS_0":10
					},
					"indices":11,
					"material":1
				}
			]
		}
	],
	"skins":[
		{
			"inverseBindMatrices":12,
			"joints":[
				42,
				17,
				16,
				5,
				4,
				3,
				2,
				1,
				0,
				11,
				10,
				9,
				8,
				7,
				6,
				15,
				14,
				13,
				12,
				41,
				23,
				22,
				21,
				20,
				19,
				18,
				29,
				28,
				27,
				26,
				25,
				24,
				40,
				39,
				38,
				37,
				36,
				35,
				34,
				33,
				32,
				31,
				30
			],
			"name":"rig"
		}
	],
	"accessors":[
		{
			"bufferView":0,
			"componentType":5126,
			"count":4966,
			"max":[
				7.885902404785156,
				25.351531982421875,
				42.3687858581543
			],
			"min":[
				-7.885902404785156,
				-25.351526260375977,
				-42.36878204345703
			],
			"type":"VEC3"
		},
		{
			"bufferView":1,
			"componentType":5126,
			"count":4966,
			"type":"VEC3"
		},
		{
			"bufferView":2,
			"componentType":5126,
			"count":4966,
			"type":"VEC2"
		},
		{
			"bufferView":3,
			"componentType":5121,
			"count":4966,
			"type":"VEC4"
		},
		{
			"bufferView":4,
			"componentType":5126,
			"count":4966,
			"type":"VEC4"
		},
		{
			"bufferView":5,
			"componentType":5123,
			"count":29310,
			"type":"SCALAR"
		},
		{
			"bufferView":6,
			"componentType":5126,
			"count":4696,
			"max":[
				4.190102577209473,
				15.850764274597168,
				36.70975875854492
			],
			"min":[
				-4.183355331420898,
				12.560954093933105,
				33.36957550048828
			],
			"type":"VEC3"
		},
		{
			"bufferView":7,
			"componentType":5126,
			"count":4696,
			"type":"VEC3"
		},
		{
			"bufferView":8,
			"componentType":5126,
			"count":4696,
			"type":"VEC2"
		},
		{
			"bufferView":9,
			"componentType":5121,
			"count":4696,
			"type":"VEC4"
		},
		{
			"bufferView":10,
			"componentType":5126,
			"count":4696,
			"type":"VEC4"
		},
		{
			"bufferView":11,
			"componentType":5123,
			"count":27744,
			"type":"SCALAR"
		},
		{
			"bufferView":12,
			"componentType":5126,
			"count":43,
			"type":"MAT4"
		}
	],
	"bufferViews":[
		{
			"buffer":0,
			"byteLength":59592,
			"byteOffset":0,
			"target":34962
		},
		{
			"buffer":0,
			"byteLength":59592,
			"byteOffset":59592,
			"target":34962
		},
		{
			"buffer":0,
			"byteLength":39728,
			"byteOffset":119184,
			"target":34962
		},
		{
			"buffer":0,
			"byteLength":19864,
			"byteOffset":158912,
			"target":34962
		},
		{
			"buffer":0,
			"byteLength":79456,
			"byteOffset":178776,
			"target":34962
		},
		{
			"buffer":0,
			"byteLength":58620,
			"byteOffset":258232,
			"target":34963
		},
		{
			"buffer":0,
			"byteLength":56352,
			"byteOffset":316852,
			"target":34962
		},
		{
			"buffer":0,
			"byteLength":56352,
			"byteOffset":373204,
			"target":34962
		},
		{
			"buffer":0,
			"byteLength":37568,
			"byteOffset":429556,
			"target":34962
		},
		{
			"buffer":0,
			"byteLength":18784,
			"byteOffset":467124,
			"target":34962
		},
		{
			"buffer":0,
			"byteLength":75136,
			"byteOffset":485908,
			"target":34962
		},
		{
			"buffer":0,
			"byteLength":55488,
			"byteOffset":561044,
			"target":34963
		},
		{
			"buffer":0,
			"byteLength":2752,
			"byteOffset":616532
		}
	],
	"buffers":[
		{
			"byteLength":619284,
			"uri":"data:application/octet-stream;base64,"
		}
	]
}
